<?xml version="1.0" standalone="no"?>
<!DOCTYPE svg PUBLIC "-//W3C//DTD SVG 20010904//EN"
 "http://www.w3.org/TR/2001/REC-SVG-20010904/DTD/svg10.dtd">
<svg version="1.0" xmlns="http://www.w3.org/2000/svg"
 width="225.000000pt" height="221.000000pt" viewBox="0 0 225.000000 221.000000"
 preserveAspectRatio="xMidYMid meet">
<metadata>
Created by potrace 1.16, written by Peter Selinger 2001-2019
</metadata>
<g transform="translate(0.000000,221.000000) scale(0.100000,-0.100000)"
fill="#000000" stroke="nome">
<path d="M450 2188 c0 -18 40 -251 43 -255 5 -4 1297 103 1297 107 0 3 -181
27 -402 54 -222 26 -523 62 -670 80 -256 31 -268 31 -268 14z"/></g>
<g transform="translate(0.000000,221.000000) scale(0.100000,-0.100000)"
fill="#990100" stroke="nome">
<path d="M675 1898 c-368 -27 -672 -51 -674 -53 -1 -2 57 -119 130 -260 l134
-256 125 -113 c180 -162 200 -179 205 -174 3 3 -10 139 -29 304 -18 164 -32
301 -30 302 1 2 211 69 466 149 255 80 465 147 467 149 10 9 -158 -1 -794 -48z"/>
<path d="M1335 1871 l-200 -69 50 -23 c28 -12 156 -69 285 -125 142 -63 234
-108 233 -116 -3 -19 -12 -69 -19 -98 -3 -14 -6 -27 -6 -30 -1 -3 -5 -21 -10
-40 -5 -19 -11 -48 -14 -65 -3 -16 -19 -86 -35 -155 -16 -69 -32 -138 -35
-155 -3 -16 -7 -37 -10 -45 -3 -8 -8 -30 -10 -49 -2 -18 -9 -42 -15 -52 -5
-10 -8 -19 -5 -19 2 0 0 -17 -5 -37 -6 -21 -12 -51 -15 -68 -3 -16 -9 -46 -15
-65 -17 -66 -8 -55 53 65 34 66 61 123 60 128 -1 4 3 7 9 7 5 0 7 5 4 10 -3 6
-1 10 5 10 6 0 8 4 5 10 -3 6 -1 10 6 10 7 0 10 3 7 6 -7 7 121 278 133 282 5
2 7 8 3 13 -3 5 0 9 7 9 7 0 10 3 7 6 -7 6 131 298 143 302 5 2 7 8 3 13 -3 5
0 9 7 9 7 0 10 3 7 6 -7 7 120 278 133 282 5 2 7 8 3 13 -3 5 0 9 6 9 6 0 8 5
5 10 -3 6 -2 10 2 10 5 0 10 11 11 24 2 23 0 23 -126 29 -70 4 -203 9 -297 12
l-170 5 -200 -69z"/></g>
<g transform="translate(0.000000,221.000000) scale(0.100000,-0.100000)"
fill="#990100" stroke="nome">
<path d="M755 1534 c-16 -8 -41 -25 -54 -37 -23 -22 -56 -85 -48 -93 2 -3 24
-8 48 -12 44 -8 44 -7 61 30 9 21 22 38 28 38 6 0 8 5 5 10 -4 6 6 10 23 10
38 0 66 -32 66 -76 0 -40 -28 -68 -76 -78 -18 -4 -29 -13 -34 -30 -9 -38 3
-49 46 -42 29 5 43 1 65 -16 25 -19 27 -26 22 -72 -6 -62 -39 -96 -96 -96 -41
0 -61 14 -61 44 0 11 -9 30 -21 42 -29 31 -75 16 -81 -27 -3 -16 -2 -27 0 -24
3 3 19 -16 36 -42 50 -75 75 -88 166 -88 87 0 116 13 157 75 47 68 42 149 -13
205 l-35 36 22 30 c49 69 24 174 -51 211 -44 22 -135 23 -175 2z"/>
<path d="M1077 1543 c-4 -3 -7 -124 -7 -268 l0 -261 29 -17 c24 -14 55 -17
168 -17 76 0 155 5 176 11 57 16 113 71 137 137 29 77 25 235 -7 298 -28 53
-82 100 -130 113 -41 12 -355 15 -366 4z m238 -77 c73 -31 100 -84 100 -196
-1 -120 -45 -171 -160 -187 l-45 -6 0 202 0 201 35 0 c20 0 51 -6 70 -14z"/></g>
<g transform="translate(0.000000,221.000000) scale(0.100000,-0.100000)"
fill="#000000" stroke="nome">
<path d="M62 1469 c19 -47 530 -1235 533 -1237 5 -5 196 159 201 173 3 7 -17
45 -45 83 -27 39 -47 73 -44 76 4 3 2 6 -4 6 -11 0 -83 103 -83 119 0 5 -4 11
-8 13 -13 5 -82 104 -82 117 0 6 -4 11 -10 11 -5 0 -10 7 -10 15 0 8 -3 15 -7
15 -5 0 -21 21 -38 48 -65 105 -387 567 -397 571 -6 2 -9 -3 -6 -10z"/>
<path d="M1686 854 c-153 -322 -276 -587 -274 -590 6 -5 814 1074 811 1084 -2
8 -222 91 -243 91 -11 1 -102 -182 -294 -585z"/></g>
<g transform="translate(0.000000,221.000000) scale(0.100000,-0.100000)"
fill="#990100" stroke="nome">
<path d="M362 1149 c36 -52 195 -285 353 -519 159 -234 292 -427 295 -430 4
-3 31 -42 60 -87 29 -46 57 -83 61 -83 4 0 76 109 160 242 l153 242 43 201
c24 110 42 208 41 218 -2 14 -58 -23 -247 -163 -134 -99 -249 -180 -256 -180
-7 0 -35 24 -64 54 -28 30 -51 52 -51 49 0 -3 -28 21 -62 53 -35 32 -61 64
-59 69 1 6 -1 7 -5 3 -9 -10 -130 102 -126 116 2 6 0 8 -4 4 -8 -9 -120 91
-117 104 2 4 -1 7 -5 5 -13 -4 -132 105 -125 116 3 5 2 7 -4 4 -5 -4 -23 7
-39 24 -63 67 -64 47 -2 -42z"/>
</g>
</svg>
